# xmcd
#
# Track frame offsets:
#	150
#	7181
#	26612
#	45831
#	65561
#	87112
#	104194
#	122328
#	124377
#	143274
#	162124
#	165526
#	180999
#	195433
#
# Disc length: 2699 seconds
#
# Revision: 0
# Processed by: cddbd v1.5.2PL0 Copyright (c) Steve Scherf et al.
# Submitted via: audiograbber 1.83.01
#
DISCID=ab0a890e
DTITLE=Pastor Troy - Attitude Adjuster
DYEAR=2008
DGENRE=Rap
TTITLE0=It's On
TTITLE1=I'm Hot (I Got That Lava)
TTITLE2=Street Law
TTITLE3=Dread And Alive
TTITLE4=For My Soldiers
TTITLE5=My Box Chevy
TTITLE6=Do You Wanna Dance?
TTITLE7=Strap Up
TTITLE8=Blocks
TTITLE9=Down To Ride
TTITLE10=Attitude Adjuster
TTITLE11=License To Kill
TTITLE12=Put Him On The Scope
TTITLE13=PT Cruiser
EXTD=www.RapMusicGuide.com
EXTT0=
EXTT1=
EXTT2=
EXTT3=
EXTT4=
EXTT5=
EXTT6=
EXTT7=
EXTT8=
EXTT9=
EXTT10=
EXTT11=
EXTT12=
EXTT13=
PLAYORDER=
